<svg xmlns="http://www.w3.org/2000/svg" xmlns:xlink="http://www.w3.org/1999/xlink" width="16" height="12" version="1.1" viewBox="0 0 16 12"><title>icon/check-big</title><desc>Created with Sketch.</desc><g id="Icons-✅" fill="none" fill-rule="evenodd" stroke="none" stroke-width="1"><g id="Icons" fill="currentColor" transform="translate(-572.000000, -2522.000000)"><g id="icon/check-big" transform="translate(572.000000, 2522.000000)"><g id="check-big" transform="translate(-1.000000, 0.000000)"><path id="Path" d="M6.7,11.5 C6.51412994,11.4984953 6.33563326,11.4270967 6.2,11.3 L1.2,6.3 C1.06303562,6.16974694 0.985499737,5.98901085 0.985499737,5.8 C0.985499737,5.61098915 1.06303562,5.43025306 1.2,5.3 C1.47679776,5.02544444 1.92320224,5.02544444 2.2,5.3 L6.7,9.8 L15.8,0.7 C16.0767978,0.425444435 16.5232022,0.425444435 16.8,0.7 C16.9369644,0.830253055 17.0145003,1.01098915 17.0145003,1.2 C17.0145003,1.38901085 16.9369644,1.56974694 16.8,1.7 L7.19,11.3 C7.05743395,11.4256118 6.88260044,11.4969724 6.7,11.5 Z"/></g></g></g></g></svg>