<svg xmlns="http://www.w3.org/2000/svg" xmlns:xlink="http://www.w3.org/1999/xlink" width="6" height="8" version="1.1" viewBox="0 0 6 8"><title>icon/pause</title><desc>Created with Sketch.</desc><g id="Icons-✅" fill="none" fill-rule="evenodd" stroke="none" stroke-width="1"><g id="Icons" fill="currentColor" transform="translate(-167.000000, -1468.000000)"><g id="icon/pause" transform="translate(167.000000, 1468.000000)"><g id="pause"><path id="Combined-Shape" d="M5,8 C4.61340068,8 4.3,7.68659932 4.3,7.3 L4.3,0.7 C4.3,0.313400675 4.61340068,-8.8817842e-16 5,-8.8817842e-16 C5.38659932,-8.8817842e-16 5.7,0.313400675 5.7,0.7 L5.7,7.3 C5.7,7.48565154 5.62625021,7.66369928 5.49497475,7.79497475 C5.36369928,7.92625021 5.18565154,8 5,8 Z M1,8 C0.613400675,8 0.3,7.68659932 0.3,7.3 L0.3,0.7 C0.3,0.313400675 0.613400675,-8.8817842e-16 1,-8.8817842e-16 C1.38659932,-8.8817842e-16 1.7,0.313400675 1.7,0.7 L1.7,7.3 C1.7,7.68659932 1.38659932,8 1,8 Z"/></g></g></g></g></svg>