<svg xmlns="http://www.w3.org/2000/svg" xmlns:xlink="http://www.w3.org/1999/xlink" width="14" height="14" version="1.1" viewBox="0 0 14 14"><title>icon/text-field</title><desc>Created with Sketch.</desc><g id="Icons-✅" fill="none" fill-rule="evenodd" stroke="none" stroke-width="1"><g id="Icons" fill="currentColor" transform="translate(-737.000000, -937.000000)"><g id="icon/text-field" transform="translate(737.000000, 937.000000)"><g id="text-field"><path id="Shape" d="M13.3,2.22044605e-16 L0.7,2.22044605e-16 C0.313400675,0 0,0.313400675 0,0.7 L0,4.21 C0,4.59659932 0.313400675,4.91 0.7,4.91 L4.55,4.91 L4.55,13.3 C4.55,13.6865993 4.86340068,14 5.25,14 L8.75,14 C9.13659932,14 9.45,13.6865993 9.45,13.3 L9.45,4.91 L13.3,4.91 C13.6865993,4.91 14,4.59659932 14,4.21 L14,0.7 C14,0.313400675 13.6865993,0 13.3,2.22044605e-16 Z M12.6,3.51 L8.75,3.51 C8.36340068,3.51 8.05,3.82340068 8.05,4.21 L8.05,12.6 L6,12.6 L6,4.21 C6,3.82340068 5.68659932,3.51 5.3,3.51 L1.4,3.51 L1.4,1.4 L12.6,1.4 L12.6,3.51 Z"/></g></g></g></g></svg>